<defs>
<font horiz-adv-x="545" ><font-face
    font-family="exo-extra-bold"
    units-per-em="1000"
    panose-1="2 0 8 3 0 0 0 0 0 0"
    ascent="1002"
    descent="-327"
    alphabetic="0" />
<missing-glyph horiz-adv-x="692" d="M611 506L359 266L611 25V506ZM94 13H601L348 256L94 13ZM81 22L337 266L81 507V22ZM602 518H91L348 276L602 518ZM67 0V531H625V0H67Z" />
<glyph unicode="&#xd;" glyph-name="uni000D" horiz-adv-x="671" />
<glyph unicode=" " glyph-name="space" horiz-adv-x="250" />
<glyph unicode="!" glyph-name="exclam" horiz-adv-x="275" d="M61 23V125Q61 150 85 150H185Q208 150 208 125V23Q208 0 185 0H85Q61 0 61 23ZM56 731H217L199 196H71L56 731Z" />
<glyph unicode="&quot;" glyph-name="quotedbl" horiz-adv-x="467" d="M57 665V732H214V665L204 531H69L57 665ZM254 665V732H411V665L401 531H265L254 665Z" />
<glyph unicode="#" glyph-name="numbersign" horiz-adv-x="733" d="M13 202L30 314H180L199 419H47L65 531H220L257 732H369L332 531H440L476 732H588L552 531H721L705 419H534L516 313H686L671 201H492L454 0H342L380 201L271 202L234 0H122L159 202H13ZM292
314L404 313L422 419H311L292 314Z" />
<glyph unicode="$" glyph-name="dollar" horiz-adv-x="568" d="M37 483V545Q38 732 236 738V824H331V737Q422 733 505 707V580Q393 589 288 589Q239 590 220 580T201 530V505Q201 472 217 459T272 445H352Q395 445 428 432T480 397T511 348T528 295T532 243V201Q532
-8 331 -8V-90H236V-7Q178 -5 146 1T60 24V151Q190 141 292 141Q328 141 348 152T368 194V223Q368 253 355 267T308 281H230Q179 281 142 297T85 335T54 388T40 440T37 483Z" />
<glyph unicode="%" glyph-name="percent" horiz-adv-x="964" d="M28 482V600Q28 666 60 699T165 732H266Q337 732 368 699T400 600V482Q400 415 369 382T264 349H163Q92 349 60 382T28 482ZM138 504Q138 480 147 470T182 459H245Q273 459 281 469T290 504V577Q290
604 281 613T247 622H184Q159 622 149 613T138 577V504ZM201 0L651 732H762L317 0H201ZM565 135V253Q565 320 596 353T701 386H802Q874 386 905 353T937 253V135Q937 69 906 36T800 3H699Q627 3 596 36T565 135ZM675 158Q675 134 684 124T718 113H781Q809 113 818
123T827 158V231Q827 257 817 266T783 276H720Q696 276 686 267T675 231V158Z" />
<glyph unicode="&amp;" glyph-name="ampersand" horiz-adv-x="695" d="M61 82Q27 131 24 184T42 285T108 370L172 426L124 496Q86 552 92 601T131 687T207 730Q250 737 289 738T368 733T428 723T488 710V590H338Q285 590 280 568T309 500L453 301L578 413L636
341L573 234L536 190L680 0H488L421 91L358 36Q334 15 295 4T214 -5T130 19T61 82ZM194 176Q206 161 220 153T255 146T292 166L332 205L251 312L209 274Q155 226 194 176Z" />
<glyph unicode="&apos;" glyph-name="quotesingle" horiz-adv-x="238" d="M37 665V732H202V665L192 531H48L37 665Z" />
<glyph unicode="(" glyph-name="parenleft" horiz-adv-x="393" d="M50 326Q50 422 69 512T114 663T167 770T213 838L232 860H380Q374 850 363 832T323 755T272 637T232 492T214 326Q214 239 231 152T272 2T321 -110T363 -185L380 -210H232Q224 -203 212 -191T169
-130T113 -26T70 126T50 326Z" />
<glyph unicode=")" glyph-name="parenright" horiz-adv-x="393" d="M13 -210Q20 -201 31 -184T71 -112T121 3T161 150T179 326Q179 406 162 490T121 638T72 753T30 833L13 860H162Q169 852 181 837T225 771T280 662T323 514T343 326Q343 249 333 178T307 55T272
-43T234 -118T198 -169T172 -200L162 -210H13Z" />
<glyph unicode="*" glyph-name="asterisk" horiz-adv-x="423" d="M34 566V628L172 650L178 561L34 566ZM86 417L111 554L198 532L146 398L86 417ZM162 721L222 741L286 617L203 584L162 721ZM184 463L232 538L346 448L309 398L184 463ZM235 571L354 651L390 599L292
502L235 571Z" />
<glyph unicode="+" glyph-name="plus" horiz-adv-x="471" d="M28 289V423H168V564H302V423H444V289H302V148H168V289H28Z" />
<glyph unicode="," glyph-name="comma" horiz-adv-x="258" d="M57 25V124Q57 151 82 151H178Q202 151 202 124V-11Q202 -44 188 -64T153 -89T112 -94T77 -91L62 -88V-34Q76 -34 83 -30T92 -22T93 -10V0H82Q71 0 64 6T57 25Z" />
<glyph unicode="-" glyph-name="hyphen" horiz-adv-x="354" d="M20 223V357H334V223H20Z" />
<glyph unicode="." glyph-name="period" horiz-adv-x="260" d="M57 23V125Q57 150 81 150H179Q204 150 204 125V23Q204 0 179 0H81Q71 0 64 6T57 23Z" />
<glyph unicode="/" glyph-name="slash" horiz-adv-x="476" d="M13 -72L294 770H463L182 -72H13Z" />
<glyph unicode="0" glyph-name="zero" horiz-adv-x="626" d="M47 184V540Q47 632 96 682T235 732H399Q580 732 580 548V184Q580 96 533 48T398 0H234Q144 0 96 47T47 184ZM211 215Q211 149 278 149H350Q384 149 400 162T416 214V518Q416 583 356 583H273Q211 583
211 518V215Z" />
<glyph unicode="1" glyph-name="one" horiz-adv-x="374" d="M26 544V650L158 732H321V0H157V573L26 544Z" />
<glyph unicode="2" glyph-name="two" horiz-adv-x="585" d="M26 592V714Q169 742 330 742Q440 742 496 678T552 510Q552 466 532 418T485 333T419 255T358 194T306 149H552V0H34V143Q73 169 127 212T243 309T346 419T388 508Q388 555 361 573T270 592H26Z" />
<glyph unicode="3" glyph-name="three" horiz-adv-x="579" d="M20 585V706Q61 720 117 727T229 734T346 734Q430 732 480 685T530 554V508Q530 393 451 364Q530 334 530 212V176Q530 88 481 41T339 -7Q333 -7 302 -7T263 -7T228 -7T190 -6T156 -4T120 0T89 5T56
12T26 21L27 143H265Q325 143 345 153T366 202V224Q366 262 345 274T271 288L88 296V428L271 438Q326 441 347 452T368 500V524Q368 561 343 573T271 585H20Z" />
<glyph unicode="4" glyph-name="four" horiz-adv-x="627" d="M13 224L252 732H430L238 302H382V455L412 532H546V302H614V176L546 150V2H382V150H47L13 224Z" />
<glyph unicode="5" glyph-name="five" horiz-adv-x="594" d="M51 20V150H325Q348 150 362 155T383 172T390 191T392 213V264Q392 293 380 310T334 327H262Q208 327 208 274H52L74 732H527V583H233L227 446Q253 464 294 468Q323 471 389 468Q473 463 514 413T556
280V181Q556 132 539 95T493 37T431 6T363 -4Q260 -4 203 0T51 20Z" />
<glyph unicode="6" glyph-name="six" horiz-adv-x="603" d="M44 384Q44 714 216 734Q352 751 540 714V589H304Q278 589 260 579T231 556T216 518T210 476T208 430Q269 450 388 450Q441 450 476 437T530 399T556 343T564 272V170Q564 -1 381 -1H240Q202 -1 174
8T121 44T79 112T54 223T44 384ZM208 309Q208 224 225 186T296 148H346Q376 148 388 159T401 203V249Q401 284 391 296T350 309H208Z" />
<glyph unicode="7" glyph-name="seven" horiz-adv-x="557" d="M20 583V732H496L538 662L300 0H123L336 583H20Z" />
<glyph unicode="8" glyph-name="eight" horiz-adv-x="621" d="M50 173V237Q50 281 70 312T127 352Q101 363 85 379T62 416T53 455T50 499V564Q50 614 65 649T107 702T167 729T241 737H395Q484 737 528 697T572 563V514Q572 501 570 486T560 451T537 417T497 398Q520
394 536 378T559 340T569 298T572 259V177Q572 132 562 100T535 48T495 18T447 4T394 0H241Q203 0 173 7T123 24T89 50T67 80T56 113T51 145T50 173ZM214 195Q214 166 228 154T275 142H350Q382 142 395 155T408 195V252Q408 307 352 307H272Q241 307 228 293T214
252V195ZM214 494Q214 462 228 451T272 440H351Q386 440 397 453T408 494V534Q408 571 394 583T350 596H275Q242 596 228 585T214 534V494Z" />
<glyph unicode="9" glyph-name="nine" horiz-adv-x="603" d="M40 462V563Q40 734 224 734H365Q403 734 431 725T484 690T526 621T551 510T561 349Q561 20 389 -1Q308 -9 224 -3T64 20V144H301Q327 144 345 154T374 178T389 215T395 257T397 304Q336 283 216 283Q164
283 129 296T75 334T48 390T40 462ZM204 484Q204 449 214 437T255 424H397Q397 509 380 547T308 585H258Q229 585 217 574T204 530V484Z" />
<glyph unicode=":" glyph-name="colon" horiz-adv-x="260" d="M57 23V125Q57 150 81 150H179Q204 150 204 125V23Q204 0 179 0H81Q71 0 64 6T57 23ZM57 404V506Q57 531 81 531H179Q204 531 204 506V404Q204 381 179 381H81Q71 381 64 387T57 404Z" />
<glyph unicode=";" glyph-name="semicolon" horiz-adv-x="261" d="M57 25V124Q57 151 82 151H178Q202 151 202 124V-11Q202 -44 188 -64T153 -89T112 -94T77 -91L62 -88V-34Q76 -34 83 -30T92 -22T93 -10V0H82Q71 0 64 6T57 25ZM58 404V506Q58 532 82 532H180Q205
532 205 506V404Q205 382 180 382H82Q71 382 65 388T58 404Z" />
<glyph unicode="&lt;" glyph-name="less" horiz-adv-x="442" d="M34 278V426L408 564V416L201 353L408 280V132L34 278Z" />
<glyph unicode="=" glyph-name="equal" horiz-adv-x="467" d="M20 174V308H447V174H20ZM20 391V525H447V391H20Z" />
<glyph unicode="&gt;" glyph-name="greater" horiz-adv-x="442" d="M34 132V280L241 353L34 416V564L408 426V278L34 132Z" />
<glyph unicode="?" glyph-name="question" horiz-adv-x="543" d="M13 589V712Q88 729 151 736T295 739Q350 739 393 722T463 676T503 612T517 539V476Q517 371 465 323T296 281V195H169V402H273Q313 404 333 421T354 478V515Q354 554 330 571T254 589H13ZM159
23V125Q159 150 183 150H281Q306 150 306 125V23Q306 0 281 0H183Q172 0 166 6T159 23Z" />
<glyph unicode="@" glyph-name="at" horiz-adv-x="877" d="M44 15V303Q44 345 54 380T88 446T157 494T264 512H448Q487 512 515 507T572 486T616 436T631 350V0H528L507 56Q507 56 500 50T481 34T451 14T410 -2T360 -9Q298 -9 265 32T232 130V168Q232 238 271
273T384 309H505Q506 339 505 340Q505 368 493 377T451 386H264Q244 386 229 383T200 371T178 343T170 296V30Q170 -31 198 -55T264 -80H591Q649 -80 671 -53T694 30V467Q694 523 666 554T591 585H187V684Q233 694 323 703T498 711H591Q636 711 675 699T747 659T800
582T820 467V30Q820 -92 765 -150T598 -208H264Q168 -208 106 -155T44 15ZM366 152Q366 117 408 118Q474 117 505 156V220L404 211Q384 209 375 201T366 172Q366 172 366 163T366 152Z" />
<glyph unicode="A" glyph-name="A" horiz-adv-x="700" d="M30 0L269 732H459L690 0H519L471 147H250L202 0H30ZM290 289H435L366 522L290 289Z" />
<glyph unicode="B" glyph-name="B" horiz-adv-x="607" d="M54 0V732H363Q472 732 523 679T575 534Q575 480 549 434T472 380Q523 371 556 327T590 219Q590 107 536 54T366 0H54ZM218 142H359Q426 142 426 227Q426 266 410 291T359 316H218V142ZM218 450H352Q382
450 398 468T414 519Q414 558 396 574T352 590H218V450Z" />
<glyph unicode="C" glyph-name="C" horiz-adv-x="569" d="M37 368Q37 460 48 525T87 641T165 715T288 740Q377 740 430 733T547 704V576Q547 576 540 576T521 578T494 581T459 585T419 588T376 590T333 591Q310 591 296 590T266 584T241 570T224 544T211 504T204
446T201 366Q201 239 227 191T334 143Q380 143 433 145T517 149L547 152V24Q455 -9 288 -6Q153 -4 95 89T37 368Z" />
<glyph unicode="D" glyph-name="D" horiz-adv-x="664" d="M54 0V732H379Q439 732 484 712T556 658T601 576T624 476T631 363Q631 0 379 0H54ZM218 142H364Q419 142 443 197T467 364Q467 456 454 507T420 574T364 590H218V142Z" />
<glyph unicode="E" glyph-name="E" horiz-adv-x="567" d="M50 152V572Q50 611 61 641T90 688T131 715T176 729T221 732Q458 728 545 716V579H266Q247 579 236 575T221 561T215 544T214 523V440L498 430V294L214 285V202Q214 183 219 172T235 156T253 151T276 150H545V14Q511
9 433 5T292 -1L231 -3Q208 -4 187 -2T140 9T95 34T63 80T50 152Z" />
<glyph unicode="F" glyph-name="F" horiz-adv-x="567" d="M50 0V569Q50 656 100 694T221 732Q458 728 545 716V579H266Q247 579 236 575T221 561T215 544T214 523V440L498 430V294L214 285V0H50Z" />
<glyph unicode="G" glyph-name="G" horiz-adv-x="614" d="M37 370Q37 440 43 492T64 593T106 673T176 722T278 740Q379 740 430 734T569 706V579Q568 579 553 581T514 586T461 591T394 596T323 598Q248 598 225 550T201 368Q201 311 203 276T212 214T232 173T264
154T312 147Q342 147 367 158T404 181L414 193V299H336V402Q388 426 510 426Q542 426 578 424V0H462L416 49Q392 22 363 10T275 -5Q215 -8 171 11T102 62T61 146T42 249T37 370Z" />
<glyph unicode="H" glyph-name="H" horiz-adv-x="636" d="M54 0V732H218V428H433V732H597V0H433V280H218V0H54Z" />
<glyph unicode="I" glyph-name="I" horiz-adv-x="257" d="M54 0V732H218V0H54Z" />
<glyph unicode="J" glyph-name="J" horiz-adv-x="356" d="M24 24L25 153Q61 152 85 153T125 164T146 193T152 248V732H316V165Q316 52 263 18Q222 -7 143 -5T24 24Z" />
<glyph unicode="K" glyph-name="K" horiz-adv-x="642" d="M54 0V732H210V434H261L430 732H620L406 365L620 0H430L261 292H211V0H54Z" />
<glyph unicode="L" glyph-name="L" horiz-adv-x="533" d="M54 148V732H218V201Q218 182 222 171T238 155T257 150T280 149H511V0H212Q141 0 98 34T54 148Z" />
<glyph unicode="M" glyph-name="M" horiz-adv-x="864" d="M37 0L108 732H336L431 272L528 732H755L828 0H667L618 449L525 0H340L243 449L199 0H37Z" />
<glyph unicode="N" glyph-name="N" horiz-adv-x="677" d="M54 0V732H220L474 303V732H638V0H474L219 422V0H54Z" />
<glyph unicode="O" glyph-name="O" horiz-adv-x="669" d="M44 361Q44 433 52 489T73 585T109 653T154 697T210 722T272 734T342 737Q384 737 413 734T476 722T532 697T577 653T611 586T632 490T640 361Q640 293 633 240T613 148T579 82T535 38T480 12T416 -1T342
-4Q305 -4 278 -2T220 6T169 23T126 53T91 99T66 163T49 249T44 361ZM208 361Q208 305 211 270T222 208T246 169T284 151T342 145Q396 145 423 162T463 225T476 361Q476 423 472 462T459 528T433 566T396 583T343 588T290 585T253 569T227 531T213 465T208 361Z"
/>
<glyph unicode="P" glyph-name="P" horiz-adv-x="610" d="M48 0V732H368Q401 732 427 728T484 710T534 671T567 604T581 501Q581 436 567 389T532 316T480 278T424 262T368 260Q339 262 278 270T212 280V0H48ZM212 402H353Q385 402 400 424T416 499Q415 590 353
590H212V402Z" />
<glyph unicode="Q" glyph-name="Q" horiz-adv-x="669" d="M44 361Q44 433 52 489T73 585T108 653T153 697T209 722T271 734T342 737Q383 737 413 734T476 722T532 697T577 653T611 586T632 490T640 361Q640 293 633 240T613 148T579 83T535 39T480 13T416 0T342
-4Q304 -4 277 -2T220 6T168 23T126 53T91 99T66 163T49 249T44 361ZM208 361Q208 304 211 269T222 208T246 169T284 151T342 145Q396 145 423 162T463 225T476 361Q476 423 472 462T459 528T433 566T396 583T342 588T289 585T252 569T226 531T213 465T208 361ZM294
-33H383Q406 -97 544 -64V-189Q510 -194 476 -194T409 -183T352 -154T311 -105T294 -33Z" />
<glyph unicode="R" glyph-name="R" horiz-adv-x="612" d="M48 0V732H371Q470 732 526 679T582 501Q582 450 574 412T556 352T528 316T499 295T469 283L602 0H416L307 269L212 283V0H48ZM213 409H352Q390 409 403 428T416 501Q416 549 401 569T352 590H213V409Z" />
<glyph unicode="S" glyph-name="S" horiz-adv-x="593" d="M44 483V545Q44 734 242 738Q430 743 537 707V579Q435 589 294 589Q246 590 227 580T208 530V505Q208 470 222 458T278 445H384Q427 445 459 432T511 397T543 348T559 295T564 243V201Q564 150 552 112T521
52T475 16T420 -3T361 -8Q243 -8 187 -2T67 24V152Q177 141 324 141Q360 141 380 152T400 194V223Q400 253 387 267T340 281H237Q185 281 147 297T90 335T60 388T47 439T44 483Z" />
<glyph unicode="T" glyph-name="T" horiz-adv-x="599" d="M26 583V732H579V583H382V0H218V583H26Z" />
<glyph unicode="U" glyph-name="U" horiz-adv-x="660" d="M54 320V732H218V320Q218 217 242 181T340 144Q407 144 431 182T456 320V732H621V320Q621 253 611 201T587 114T548 57T502 21T448 3T394 -4T340 -5Q337 -5 330 -5Q292 -5 272 -4T218 3T165 20T122 55T85
113T63 199T54 320Z" />
<glyph unicode="V" glyph-name="V" horiz-adv-x="691" d="M30 732H203L348 208L502 732H675L444 0H250L30 732Z" />
<glyph unicode="W" glyph-name="W" horiz-adv-x="1004" d="M30 732H203L347 211L461 732H635L590 560L700 209L815 732H988L796 0H602L518 273L444 0H250L30 732Z" />
<glyph unicode="X" glyph-name="X" horiz-adv-x="658" d="M30 732H212L335 503L460 732H642L420 365L636 0H455L335 224L214 0H33L250 365L30 732Z" />
<glyph unicode="Y" glyph-name="Y" horiz-adv-x="666" d="M30 732H208L334 393L472 732H650L414 215V0H250V215L30 732Z" />
<glyph unicode="Z" glyph-name="Z" horiz-adv-x="554" d="M24 0V149L337 583H24V732H532V583L241 149H532V0H24Z" />
<glyph unicode="[" glyph-name="bracketleft" horiz-adv-x="338" d="M57 0V648Q57 842 238 842H326V708H283Q221 708 221 625V7Q221 -76 283 -76H326V-210H238Q57 -210 57 0Z" />
<glyph unicode="\" glyph-name="backslash" horiz-adv-x="476" d="M13 770H182L463 -72H294L13 770Z" />
<glyph unicode="]" glyph-name="bracketright" horiz-adv-x="338" d="M13 -76H56Q118 -76 118 7V625Q118 708 56 708H13V842H101Q282 842 282 648V0Q282 -210 101 -210H13V-76Z" />
<glyph unicode="^" glyph-name="asciicircum" horiz-adv-x="381" d="M34 531L138 668H254L348 531H247L193 587L136 531H34Z" />
<glyph unicode="_" glyph-name="underscore" horiz-adv-x="674" d="M20 -1V133H654V-1H20Z" />
<glyph unicode="`" glyph-name="grave" horiz-adv-x="243" d="M13 672H146L230 531H131L13 672Z" />
<glyph unicode="a" glyph-name="a" horiz-adv-x="519" d="M26 139V185Q26 250 65 292T190 335Q322 334 322 335Q323 356 322 357Q322 395 307 405T255 416Q200 416 44 405V504Q94 525 147 533T280 541Q382 541 434 502T486 364V0H356L322 56Q314 39 274 16T183
-6Q105 -3 66 40T26 139ZM190 164Q190 149 194 140T205 126T219 121T237 120Q259 120 280 129T312 149L322 158V239L228 231Q190 228 190 181V164Z" />
<glyph unicode="b" glyph-name="b" horiz-adv-x="557" d="M40 0V785H204V506Q271 539 352 539Q395 539 426 527T476 493T506 436T521 360T525 263Q525 128 485 61T352 -6Q275 -6 205 52L178 0H40ZM205 158Q237 130 303 130Q333 130 347 159T361 270Q361 331 354
364T335 406T303 416Q239 416 205 398V158Z" />
<glyph unicode="c" glyph-name="c" horiz-adv-x="492" d="M34 188T34 266T46 398T83 481T138 523T208 536Q366 536 459 502V404Q379 410 290 410Q273 410 264 409T243 406T226 398T214 382T204 356T200 318T198 264Q198 214 201 187T217 144T244 126T290 122Q331
122 375 124T443 128L466 130V31Q444 18 420 10T365 -1T315 -5T259 -6T208 -5Q169 -5 139 7T85 49T47 133Z" />
<glyph unicode="d" glyph-name="d" horiz-adv-x="557" d="M34 263Q34 321 37 362T52 438T82 495T132 527T206 539Q287 539 354 506V785H518V0H380L354 52Q284 -6 206 -6Q114 -6 74 59T34 263ZM198 270Q198 189 211 160T256 130Q321 130 354 158V398Q319 416 256
416Q235 416 224 407T205 364T198 270Z" />
<glyph unicode="e" glyph-name="e" horiz-adv-x="525" d="M34 268Q34 353 45 405T86 486T157 525T266 535Q311 535 340 533T398 523T444 503T474 469T493 416T498 340Q498 266 460 234T346 202H198Q198 185 200 172T206 151T218 136T233 127T253 123T277 121T305
121Q311 121 314 121Q378 121 407 122T488 132V23Q455 9 397 3T307 -4T208 -5Q110 -5 72 58T34 268ZM198 313H297Q315 313 324 322T334 349Q334 391 324 403T276 416Q251 416 238 414T215 401T201 371T198 313Z" />
<glyph unicode="f" glyph-name="f" horiz-adv-x="405" d="M13 412V514L92 531V630Q92 709 132 747T260 786Q339 786 392 762V666L306 668Q271 668 263 653T255 592Q256 588 256 585V531H366V412H256V0H92V412H13Z" />
<glyph unicode="g" glyph-name="g" horiz-adv-x="563" d="M31 98Q31 174 94 196Q63 216 49 257T35 344Q35 533 223 533H550V440L499 422Q505 406 507 398T512 370T515 322Q515 288 507 260T479 205T421 164T327 149H216Q206 149 203 149T191 147T180 141T176 128Q176
113 186 109T216 104H361Q440 104 484 64T528 -60V-116Q528 -185 488 -227T356 -270H206Q131 -270 85 -231T38 -116V-55L87 -12Q64 -1 48 27T31 98ZM203 -93Q203 -124 215 -134T258 -144H316Q333 -144 343 -141T358 -130T364 -115T365 -96V-65Q365 -24 319 -24H244L203
-22V-93ZM199 344Q199 307 211 292T253 276H294Q326 276 338 291T351 344Q350 380 337 393T293 406H253Q220 406 210 390T199 344Z" />
<glyph unicode="h" glyph-name="h" horiz-adv-x="552" d="M40 0V782H204V476Q229 497 245 507T293 529T363 540Q410 540 442 526T490 483T513 423T520 348V0H356V350Q356 385 344 399T308 414Q273 414 250 404T204 372V0H40Z" />
<glyph unicode="i" glyph-name="i" horiz-adv-x="238" d="M34 607V708Q34 734 58 734H182Q205 734 205 708V607Q205 584 182 584H58Q47 584 41 590T34 607ZM37 0V531H201V0H37Z" />
<glyph unicode="j" glyph-name="j" horiz-adv-x="252" d="M40 607V708Q40 734 64 734H190Q200 734 206 727T212 708V607Q212 584 190 584H64Q54 584 47 590T40 607ZM45 -270V531H209V-4Q210 -88 203 -152T168 -270H45Z" />
<glyph unicode="k" glyph-name="k" horiz-adv-x="578" d="M40 0V782H204V357H230L361 531H566L380 298L566 0H372L230 238H204V0H40Z" />
<glyph unicode="l" glyph-name="l" horiz-adv-x="318" d="M40 189V783H204V219Q204 168 214 149T246 119Q299 98 306 98V0H180Q109 0 75 43T40 189Z" />
<glyph unicode="m" glyph-name="m" horiz-adv-x="867" d="M40 0V531H175L204 476Q228 494 237 501T267 519T310 535T361 539Q461 539 496 474Q539 504 581 521T678 539Q724 539 755 525T804 484T827 424T834 346V0H670V350Q670 413 623 413Q553 413 517 376Q517
373 517 362T518 347V0H354V350Q354 413 306 413Q272 413 249 404T204 371V0H40Z" />
<glyph unicode="n" glyph-name="n" horiz-adv-x="552" d="M40 0V531H175L204 476Q232 498 247 508T293 529T363 540Q410 540 442 526T490 483T513 423T520 348V0H356V350Q356 385 344 399T308 414Q273 414 250 404T204 372V0H40Z" />
<glyph unicode="o" glyph-name="o" horiz-adv-x="557" d="M34 258Q34 367 58 427T133 511T279 536Q417 536 470 476T524 258Q524 109 472 52T279 -5Q142 -5 88 54T34 258ZM198 258Q198 196 205 168T228 131T279 122Q302 122 314 124T336 132T351 155T358 194T360
258Q360 301 358 325T352 368T338 395T315 406T279 410Q256 410 243 407T219 395T205 369T200 326T198 258Z" />
<glyph unicode="p" glyph-name="p" horiz-adv-x="557" d="M40 -270V531H178L205 480Q274 537 352 537Q444 537 484 470T525 268Q525 216 521 178T506 103T476 43T426 6T352 -8Q271 -8 204 24V-270H40ZM205 132Q239 115 303 115Q323 115 334 124T353 167T361 260Q361
342 347 371T303 401Q237 401 205 373V132Z" />
<glyph unicode="q" glyph-name="q" horiz-adv-x="555" d="M34 268Q34 408 84 472T232 537Q310 537 392 528T515 504V-270H351V29Q306 -10 232 -10Q121 -10 78 57T34 268ZM198 273Q198 236 198 216T202 172T213 139T234 121T268 114Q314 114 351 134V418H269Q252
418 240 412T220 394T207 369T201 338T199 306T198 273Z" />
<glyph unicode="r" glyph-name="r" horiz-adv-x="414" d="M40 0V531H182L204 464Q229 495 264 515T340 536Q378 536 394 530V373Q364 374 316 374Q271 374 245 363T204 315V0H40Z" />
<glyph unicode="s" glyph-name="s" horiz-adv-x="509" d="M26 343V389Q26 456 59 496T164 536Q244 536 289 535T387 527T456 505V405H223Q204 405 197 400T190 377V361Q190 344 198 340T223 335H338Q413 335 447 297T482 194V138Q482 63 445 29T352 -5Q272 -5
225 -4T121 5T48 28V127H291Q318 127 318 153V169Q318 183 313 189T291 196H180Q26 196 26 343Z" />
<glyph unicode="t" glyph-name="t" horiz-adv-x="383" d="M13 413V499L94 532L120 680H258V532H364V413H258V220Q258 168 268 148T300 118Q352 98 358 98V0H224Q161 0 128 44T94 190V413H13Z" />
<glyph unicode="u" glyph-name="u" horiz-adv-x="552" d="M34 184V531H198V180Q198 146 209 132T245 118Q280 118 303 127T348 160V531H512V0H378L348 54Q340 49 316 33T280 10T244 -2T190 -9Q143 -9 111 5T63 48T40 108T34 184Z" />
<glyph unicode="v" glyph-name="v" horiz-adv-x="575" d="M13 531H188L286 184L388 531H562L376 0H190L13 531Z" />
<glyph unicode="w" glyph-name="w" horiz-adv-x="835" d="M13 531H188L276 184L356 531H516L486 398L564 184L648 531H823L663 0H476L411 168L360 0H172L13 531Z" />
<glyph unicode="x" glyph-name="x" horiz-adv-x="590" d="M16 0L196 266L16 531H214L294 388L376 531H574L391 263L566 0H376L295 141L214 0H16Z" />
<glyph unicode="y" glyph-name="y" horiz-adv-x="587" d="M14 531H185L263 175Q272 139 312 136L402 531H570L404 -168L332 -270H213L281 0Q145 0 109 144L14 531Z" />
<glyph unicode="z" glyph-name="z" horiz-adv-x="480" d="M20 397V531H461V397L254 135H461V1H35V134L255 397H20Z" />
<glyph unicode="{" glyph-name="braceleft" horiz-adv-x="321" d="M13 274V393Q44 396 62 407T81 446V656Q81 744 137 793T308 842V708Q272 708 259 686T245 596V435Q245 344 145 334Q191 325 217 300T244 236V14Q244 -37 257 -60T308 -84V-210Q185 -210 133 -168T80
-38V221Q80 248 62 262T13 274Z" />
<glyph unicode="|" glyph-name="bar" horiz-adv-x="248" d="M58 -72V770H192V-72H58Z" />
<glyph unicode="}" glyph-name="braceright" horiz-adv-x="321" d="M13 -84Q50 -84 64 -61T78 14V236Q78 275 104 300T177 334Q77 344 77 435V596Q77 663 64 685T13 708V842Q127 842 184 793T241 656V446Q241 418 259 407T308 393V274Q278 276 260 262T242 221V-38Q242
-125 190 -167T13 -210V-84Z" />
<glyph unicode="~" glyph-name="asciitilde" horiz-adv-x="412" d="M34 592Q93 664 155 664Q178 664 210 647T261 629Q309 627 354 669L379 603Q325 531 266 531Q244 531 208 548T152 566Q125 566 107 558T59 531L34 592Z" />
<glyph unicode="&#xa1;" glyph-name="exclamdown" horiz-adv-x="278" d="M65 338V438Q65 459 89 461H187Q196 460 203 453T211 435V339Q210 312 188 312H89Q65 312 65 338ZM57 -270L74 264H203L219 -270H57Z" />
<glyph unicode="&#xa2;" glyph-name="cent" horiz-adv-x="486" d="M26 266Q26 345 39 399T77 482T133 524T206 536V634H302V534Q388 526 453 502V404Q372 410 283 410Q263 410 253 409T230 404T212 391T200 366T192 325T190 264Q190 214 194 187T210 144T237 125T283
121Q324 121 368 123T436 128L459 130V30Q400 -4 299 -6V-95H203V-6Q163 -5 133 7T77 49T39 133T26 266Z" />
<glyph unicode="&#xa3;" glyph-name="sterling" horiz-adv-x="578" d="M34 0V126L98 149V308H34V390L98 414V475Q98 541 110 587T143 662T199 706T271 727T364 732Q389 732 434 728T512 720L544 716V584H358Q299 584 281 569T262 492V414L466 398V308H262V149H544V0H34Z" />
<glyph unicode="&#xa4;" glyph-name="currency" horiz-adv-x="442" d="M34 434L86 487L133 442Q173 469 222 469Q268 469 308 443L354 490L408 441L359 390Q380 354 380 310Q380 258 350 217L398 172L348 116L294 168Q260 150 222 150Q176 150 138 175L91 127L38
179L86 228Q64 268 64 310Q64 353 84 387L34 434ZM149 310Q149 279 170 258T221 236T273 257T295 310Q295 340 274 362T222 384Q192 384 171 362T149 310Z" />
<glyph unicode="&#xa5;" glyph-name="yen" horiz-adv-x="646" d="M13 732H192L318 404L454 732H633L446 344H531V254H397V223H531V134H397V0H233V134H104V223H233V254H104V344H187L13 732Z" />
<glyph unicode="&#xa6;" glyph-name="brokenbar" horiz-adv-x="249" d="M58 -72V256H192V-72H58ZM58 429V770H192V429H58Z" />
<glyph unicode="&#xa7;" glyph-name="section" horiz-adv-x="537" d="M38 330V355Q38 356 38 359Q38 379 39 391T45 423T66 457T104 478Q37 509 37 590V630Q37 704 74 744T182 784Q382 784 464 765V650H234Q201 650 201 620V598Q201 567 236 567H338Q423 567 462
537T502 442V417Q502 322 437 302Q457 299 470 288T490 259T498 228T500 198V148Q500 103 488 71T455 23T412 -1T362 -8Q144 -8 74 11V126H301Q321 126 329 131T337 153V180Q337 196 329 202T302 208H197Q119 208 79 235T38 330ZM201 371Q201 348 210 341T242 334H294Q322
334 329 342T337 372V401Q337 412 336 417T331 429T318 437T294 440H242Q216 440 209 431T201 399V371Z" />
<glyph unicode="&#xa8;" glyph-name="dieresis" horiz-adv-x="445" d="M34 556T34 581T52 625T95 643T139 626T157 582T139 538T96 520T52 538ZM288 556T288 581T306 625T350 643T394 626T412 582T394 538T351 520T307 538Z" />
<glyph unicode="&#xa9;" glyph-name="copyright" horiz-adv-x="796" d="M37 368Q37 445 48 505T86 619T168 702T302 732H519Q578 732 621 712T691 660T733 579T754 480T760 368Q760 188 697 94T519 0H302Q167 0 102 103T37 368ZM138 368Q138 245 179 170T302 94H512Q659
94 659 368Q659 412 657 443T647 514T625 578T584 620T519 638H302Q265 638 238 627T187 587T151 503T138 368ZM220 365Q220 481 257 532T364 583Q477 583 550 559V477Q466 489 394 489Q354 489 338 462T322 362Q322 298 340 270T400 241Q470 241 556 257V175Q496
147 371 147Q339 147 314 156T267 189T233 256T220 365Z" />
<glyph unicode="&#xaa;" glyph-name="ordfeminine" horiz-adv-x="367" d="M20 260V334H348V260H20ZM20 468V498Q20 540 47 567T135 595Q222 594 222 595Q223 605 222 606Q222 630 212 637T174 644Q142 644 111 642T59 638T32 635V710Q98 738 193 738Q269 738 308
713T347 621V378H250L222 421Q217 407 191 390T130 374Q76 376 48 404T20 468ZM136 488Q136 471 144 467T168 462Q185 462 198 467T217 479L222 484V533L162 528Q145 527 141 519T136 498V488Z" />
<glyph unicode="&#xab;" glyph-name="guillemotleft" horiz-adv-x="592" d="M34 354L240 557L325 473L204 354L327 232L244 146L34 354ZM265 354L471 557L557 473L436 354L559 232L476 146L265 354Z" />
<glyph unicode="&#xac;" glyph-name="logicalnot" horiz-adv-x="482" d="M28 234V360H454V159H328V234H28Z" />
<glyph unicode="&#xad;" glyph-name="uni00AD" horiz-adv-x="354" d="M20 223V357H334V223H20Z" />
<glyph unicode="&#xae;" glyph-name="registered" horiz-adv-x="796" d="M37 368Q37 445 48 505T86 619T168 702T302 732H519Q578 732 621 712T691 660T733 579T754 480T760 368Q760 188 697 94T519 0H302Q167 0 102 103T37 368ZM138 368Q138 245 179 170T302
94H512Q659 94 659 368Q659 412 657 443T647 514T625 578T584 620T519 638H302Q265 638 238 627T187 587T151 503T138 368ZM243 153V580H428Q562 580 562 444Q562 384 544 355T490 314L575 153H466L386 308L344 320V153H243ZM344 394H404Q442 394 451 402T460 444Q460
471 449 478T404 486H344V394Z" />
<glyph unicode="&#xaf;" glyph-name="overscore" horiz-adv-x="359" d="M34 531V616H326V531H34Z" />
<glyph unicode="0;" glyph-name="degree" horiz-adv-x="270" d="M34 589T34 632T63 705T135 735T206 705T236 632T207 560T136 530T64 559ZM95 649T95 632T107 604T135 592T163 603T175 632T164 661T136 673T107 661Z" />
<glyph unicode="1;" glyph-name="plusminus" horiz-adv-x="491" d="M38 64V198H454V64H38ZM38 380V514H178V654H312V514H454V380H312V238H178V380H38Z" />
<glyph unicode="2;" glyph-name="twosuperior" horiz-adv-x="405" d="M21 745Q21 745 21 768T20 815T21 838Q123 859 226 859Q302 859 339 819T377 710Q377 611 214 482H377V368H24V477Q53 495 85 519T158 576T225 642T252 696Q252 725 235 735T175 745H21Z" />
<glyph unicode="3;" glyph-name="threesuperior" horiz-adv-x="409" d="M20 740V833Q85 857 241 854Q300 853 335 820T370 732V703Q370 628 310 608Q370 589 370 508V486Q370 427 336 395T236 363Q231 363 213 363T189 363T168 363T145 363T124 364T102 366T82
369T62 373T43 377T24 383L25 476L178 477Q219 477 232 482T245 508V517Q245 537 231 544T182 552L66 558V658L182 666Q218 666 232 673T247 699V707Q247 727 231 733T182 740H20Z" />
<glyph unicode="4;" glyph-name="acute" horiz-adv-x="243" d="M13 531L98 672H230L112 531H13Z" />
<glyph unicode="5;" glyph-name="uni00B5" horiz-adv-x="586" d="M61 184V531H225V180Q225 146 237 132T272 118Q307 118 330 127T376 160V531H540V0H405L376 54Q371 51 352 39T326 23T303 12T274 2Q250 -3 225 0V-270H61V184Z" />
<glyph unicode="6;" glyph-name="paragraph" horiz-adv-x="575" d="M26 499V592Q26 661 69 696T182 732H563V618H516V0H404V620H348V-270H236V372Q236 372 229 367T210 359T182 355Q104 355 65 395T26 499ZM138 514Q138 484 151 475T190 466H236V620H190Q157
620 148 609T138 566V514Z" />
<glyph unicode="7;" glyph-name="middot" horiz-adv-x="260" d="M57 334V436Q57 462 81 462H179Q204 462 204 436V334Q204 312 179 312H81Q71 312 64 318T57 334Z" />
<glyph unicode="8;" glyph-name="cedilla" horiz-adv-x="241" d="M34 -112L74 -97Q94 -88 99 -78T104 -37H208Q208 -115 183 -147T92 -180H34V-112Z" />
<glyph unicode="9;" glyph-name="onesuperior" horiz-adv-x="270" d="M11 725V797L104 852H227V368H102V743L11 725Z" />
<glyph unicode="a;" glyph-name="ordmasculine" horiz-adv-x="396" d="M20 550Q20 657 59 696T198 736T337 696T376 550Q376 451 338 413T198 374Q99 374 60 414T20 550ZM34 261V334H362V261H34ZM145 551Q145 499 155 485T198 471Q222 471 231 475T246 496T252
551Q252 609 243 624T198 639Q164 639 155 624T145 551Z" />
<glyph unicode="b;" glyph-name="guillemotright" horiz-adv-x="592" d="M34 232L157 354L36 473L121 557L327 354L116 146L34 232ZM265 232L388 354L267 473L353 557L559 354L348 146L265 232Z" />
<glyph unicode="c;" glyph-name="onequarter" horiz-adv-x="941" d="M11 612V684L104 740H227V255H102V631L11 612ZM159 0L596 760H710L274 0H159ZM508 145L666 484H796L672 206H758V302L781 352H883V206H928V110L883 90V1H758V90H531L508 145Z" />
<glyph unicode="d;" glyph-name="onehalf" horiz-adv-x="997" d="M11 612V684L104 740H227V255H102V631L11 612ZM150 0L587 760H702L265 0H150ZM610 377Q609 377 609 400T609 447T610 471Q713 491 816 491Q894 491 932 451T970 342Q970 244 804 114H970V0H613V110Q642
129 675 153T749 213T818 281T845 337Q845 360 828 368T766 377H610Z" />
<glyph unicode="e;" glyph-name="threequarters" horiz-adv-x="1054" d="M20 628V721Q49 731 87 736T163 742T244 741Q304 741 339 708T374 619V591Q374 516 315 496Q374 476 374 395V374Q374 315 340 283T239 250Q234 250 216 250T192 250T170 250T147 251T126
252T104 254T84 256T63 260T44 264T24 271L25 364H181Q222 364 236 370T250 396V405Q250 425 235 432T185 440L66 445V545L185 553Q222 554 236 560T251 586V596Q251 615 235 621T185 628H20ZM263 0L699 760H814L377 0H263ZM600 146L758 484H887L763 206H852V302L873
352H976V206H1020V110L976 90V2H852V90H623L600 146Z" />
<glyph unicode="f;" glyph-name="questiondown" horiz-adv-x="543" d="M26 -3Q26 99 78 148T246 191V277H374L375 70Q362 70 323 70T270 70Q194 67 193 -8Q193 -39 193 -44Q193 -79 217 -98T289 -118L530 -117Q530 -117 530 -130T530 -161T530 -197T530 -227T530
-240Q455 -257 392 -264T248 -267Q192 -267 148 -250T79 -203T40 -138T26 -66V-3ZM238 348V448Q238 471 262 472H360Q370 472 377 466T384 449V348Q383 323 360 322H262Q238 324 238 348Z" />
<glyph unicode="0;" glyph-name="Agrave" horiz-adv-x="700" d="M197 938H329L414 797H315L197 938ZM30 0L269 732H459L690 0H519L471 147H250L202 0H30ZM290 289H435L366 522L290 289Z" />
<glyph unicode="1;" glyph-name="Aacute" horiz-adv-x="700" d="M315 797L399 938H532L414 797H315ZM30 0L269 732H459L690 0H519L471 147H250L202 0H30ZM290 289H435L366 522L290 289Z" />
<glyph unicode="2;" glyph-name="Acircumflex" horiz-adv-x="700" d="M207 797L311 934H427L521 797H420L366 853L309 797H207ZM30 0L269 732H459L690 0H519L471 147H250L202 0H30ZM290 289H435L366 522L290 289Z" />
<glyph unicode="3;" glyph-name="Atilde" horiz-adv-x="700" d="M191 858Q250 929 313 929Q337 929 369 912T419 894Q465 892 512 933L537 867Q481 797 424 797Q400 798 365 815T310 832Q283 832 265 824T217 797L191 858ZM30 0L269 732H459L690 0H519L471
147H250L202 0H30ZM290 289H435L366 522L290 289Z" />
<glyph unicode="4;" glyph-name="Adieresis" horiz-adv-x="700" d="M175 834T175 859T193 902T237 920T280 903T298 860T281 816T238 797T194 815ZM430 834T430 859T448 902T492 920T535 903T553 860T536 816T493 797T449 815ZM30 0L269 732H459L690 0H519L471
147H250L202 0H30ZM290 289H435L366 522L290 289Z" />
<glyph unicode="5;" glyph-name="Aring" horiz-adv-x="700" d="M263 790T263 832T293 905T365 935T436 905T466 832T437 760T365 730T293 760ZM325 848T325 832T336 805T364 794T392 805T403 832T392 860T365 871T337 860ZM30 0L269 732H459L690 0H519L471
147H250L202 0H30ZM290 289H435L366 522L290 289Z" />
<glyph unicode="6;" glyph-name="AE" horiz-adv-x="966" d="M20 0L298 565Q321 611 351 644T411 694T479 721T550 732T626 732Q848 728 936 716V579H671Q653 579 642 575T626 561T621 545T619 524V439L888 428V293L619 284V201Q619 186 623 176T632 161T647
154T663 151T681 150H936V14Q901 9 827 5T694 -2L636 -4Q606 -5 578 -1T521 14T473 53T455 121V182H292L202 0H20ZM360 324H455V524L360 324Z" />
<glyph unicode="7;" glyph-name="Ccedilla" horiz-adv-x="569" d="M76 -112L116 -97Q136 -88 141 -78T146 -37H250Q250 -115 225 -147T134 -180H76V-112ZM37 368Q37 460 48 525T87 641T165 715T288 740Q377 740 430 733T547 704V576Q547 576 540 576T521 578T494
581T459 585T419 588T376 590T333 591Q310 591 296 590T266 584T241 570T224 544T211 504T204 446T201 366Q201 239 227 191T334 143Q380 143 433 145T517 149L547 152V24Q455 -9 288 -6Q153 -4 95 89T37 368Z" />
<glyph unicode="8;" glyph-name="Egrave" horiz-adv-x="567" d="M160 937H293L377 796H278L160 937ZM50 152V572Q50 611 61 641T90 688T131 715T176 729T221 732Q458 728 545 716V579H266Q247 579 236 575T221 561T215 544T214 523V440L498 430V294L214 285V202Q214
183 219 172T235 156T253 151T276 150H545V14Q511 9 433 5T292 -1L231 -3Q208 -4 187 -2T140 9T95 34T63 80T50 152Z" />
<glyph unicode="9;" glyph-name="Eacute" horiz-adv-x="567" d="M271 796L356 936H488L370 796H271ZM50 152V572Q50 611 61 641T90 688T131 715T176 729T221 732Q458 728 545 716V579H266Q247 579 236 575T221 561T215 544T214 523V440L498 430V294L214 285V202Q214
183 219 172T235 156T253 151T276 150H545V14Q511 9 433 5T292 -1L231 -3Q208 -4 187 -2T140 9T95 34T63 80T50 152Z" />
<glyph unicode="a;" glyph-name="Ecircumflex" horiz-adv-x="567" d="M161 797L265 934H381L476 797H374L320 853L263 797H161ZM50 152V572Q50 611 61 641T90 688T131 715T176 729T221 732Q458 728 545 716V579H266Q247 579 236 575T221 561T215 544T214 523V440L498
430V294L214 285V202Q214 183 219 172T235 156T253 151T276 150H545V14Q511 9 433 5T292 -1L231 -3Q208 -4 187 -2T140 9T95 34T63 80T50 152Z" />
<glyph unicode="b;" glyph-name="Edieresis" horiz-adv-x="567" d="M122 832T122 857T140 901T184 919T227 902T245 858T227 814T184 796T140 814ZM377 832T377 857T395 901T438 919T482 902T500 858T482 814T439 796T396 814ZM50 152V572Q50 611 61 641T90
688T131 715T176 729T221 732Q458 728 545 716V579H266Q247 579 236 575T221 561T215 544T214 523V440L498 430V294L214 285V202Q214 183 219 172T235 156T253 151T276 150H545V14Q511 9 433 5T292 -1L231 -3Q208 -4 187 -2T140 9T95 34T63 80T50 152Z" />
<glyph unicode="c;" glyph-name="Igrave" horiz-adv-x="257" d="M-32 938H101L185 797H86L-32 938ZM54 0V732H218V0H54Z" />
<glyph unicode="d;" glyph-name="Iacute" horiz-adv-x="257" d="M86 797L171 938H303L185 797H86ZM54 0V732H218V0H54Z" />
<glyph unicode="e;" glyph-name="Icircumflex" horiz-adv-x="257" d="M-22 797L83 934H199L293 797H192L138 853L80 797H-22ZM54 0V732H218V0H54Z" />
<glyph unicode="f;" glyph-name="Idieresis" horiz-adv-x="257" d="M-54 834T-54 859T-36 902T8 920T52 903T70 860T52 816T9 797T-35 815ZM202 834T202 859T220 902T263 920T307 903T325 860T307 816T264 797T220 815ZM54 0V732H218V0H54Z" />
<glyph unicode="&#xd0;" glyph-name="Eth" horiz-adv-x="664" d="M-11 338V408H54V732Q54 732 379 732Q439 732 484 712T556 658T601 576T624 476T631 363Q631 0 379 0H54V338H-11ZM218 142H364Q419 142 442 197T466 364Q466 433 459 478T438 547T407 580T364
589H218V408H319V338H218V142Z" />
<glyph unicode="&#xd1;" glyph-name="Ntilde" horiz-adv-x="677" d="M173 858Q231 929 295 929Q319 929 351 912T401 894Q447 892 494 933L519 867Q462 797 406 797Q382 798 347 815T292 832Q265 832 247 824T199 797L173 858ZM54 0V732H220L474 303V732H638V0H474L219
422V0H54Z" />
<glyph unicode="&#xd2;" glyph-name="Ograve" horiz-adv-x="669" d="M175 938H307L392 797H293L175 938ZM44 361Q44 433 52 489T73 585T109 653T154 697T210 722T272 734T342 737Q384 737 413 734T476 722T532 697T577 653T611 586T632 490T640 361Q640 293 633
240T613 148T579 82T535 38T480 12T416 -1T342 -4Q305 -4 278 -2T220 6T169 23T126 53T91 99T66 163T49 249T44 361ZM208 361Q208 305 211 270T222 208T246 169T284 151T342 145Q396 145 423 162T463 225T476 361Q476 423 472 462T459 528T433 566T396 583T343
588T290 585T253 569T227 531T213 465T208 361Z" />
<glyph unicode="&#xd3;" glyph-name="Oacute" horiz-adv-x="669" d="M293 797L377 938H510L392 797H293ZM44 361Q44 433 52 489T73 585T109 653T154 697T210 722T272 734T342 737Q384 737 413 734T476 722T532 697T577 653T611 586T632 490T640 361Q640 293 633
240T613 148T579 82T535 38T480 12T416 -1T342 -4Q305 -4 278 -2T220 6T169 23T126 53T91 99T66 163T49 249T44 361ZM208 361Q208 305 211 270T222 208T246 169T284 151T342 145Q396 145 423 162T463 225T476 361Q476 423 472 462T459 528T433 566T396 583T343
588T290 585T253 569T227 531T213 465T208 361Z" />
<glyph unicode="&#xd4;" glyph-name="Ocircumflex" horiz-adv-x="669" d="M185 797L289 934H405L500 797H398L344 853L287 797H185ZM44 361Q44 433 52 489T73 585T109 653T154 697T210 722T272 734T342 737Q384 737 413 734T476 722T532 697T577 653T611 586T632
490T640 361Q640 293 633 240T613 148T579 82T535 38T480 12T416 -1T342 -4Q305 -4 278 -2T220 6T169 23T126 53T91 99T66 163T49 249T44 361ZM208 361Q208 305 211 270T222 208T246 169T284 151T342 145Q396 145 423 162T463 225T476 361Q476 423 472 462T459
528T433 566T396 583T343 588T290 585T253 569T227 531T213 465T208 361Z" />
<glyph unicode="&#xd5;" glyph-name="Otilde" horiz-adv-x="669" d="M170 858Q228 929 291 929Q315 929 347 912T398 894Q443 892 490 933L515 867Q459 797 402 797Q378 798 343 815T288 832Q261 832 243 824T195 797L170 858ZM44 361Q44 433 52 489T73 585T109
653T154 697T210 722T272 734T342 737Q384 737 413 734T476 722T532 697T577 653T611 586T632 490T640 361Q640 293 633 240T613 148T579 82T535 38T480 12T416 -1T342 -4Q305 -4 278 -2T220 6T169 23T126 53T91 99T66 163T49 249T44 361ZM208 361Q208 305 211
270T222 208T246 169T284 151T342 145Q396 145 423 162T463 225T476 361Q476 423 472 462T459 528T433 566T396 583T343 588T290 585T253 569T227 531T213 465T208 361Z" />
<glyph unicode="&#xd6;" glyph-name="Odieresis" horiz-adv-x="669" d="M153 834T153 859T171 902T215 920T258 903T276 860T259 816T216 797T172 815ZM408 834T408 859T426 902T470 920T514 903T532 860T514 816T471 797T427 815ZM44 361Q44 433 52 489T73 585T109
653T154 697T210 722T272 734T342 737Q384 737 413 734T476 722T532 697T577 653T611 586T632 490T640 361Q640 293 633 240T613 148T579 82T535 38T480 12T416 -1T342 -4Q305 -4 278 -2T220 6T169 23T126 53T91 99T66 163T49 249T44 361ZM208 361Q208 305 211
270T222 208T246 169T284 151T342 145Q396 145 423 162T463 225T476 361Q476 423 472 462T459 528T433 566T396 583T343 588T290 585T253 569T227 531T213 465T208 361Z" />
<glyph unicode="&#xd7;" glyph-name="multiply" horiz-adv-x="463" d="M38 256L137 355L38 455L132 550L232 450L332 551L427 456L327 355L427 256L332 161L232 260L133 161L38 256Z" />
<glyph unicode="&#xd8;" glyph-name="Oslash" horiz-adv-x="680" d="M51 361Q51 433 59 489T80 585T115 653T160 697T216 722T278 734T349 737Q474 737 532 701L554 732H634L581 656Q647 569 647 361Q647 293 640 240T620 148T586 82T542 38T487 12T423 -1T349
-4Q280 -4 233 4T150 38L123 0H43L104 88Q51 171 51 361ZM215 361Q215 290 223 255L438 568Q414 588 349 588Q315 588 296 585T259 569T233 531T220 465T215 361ZM248 176Q274 145 349 145Q403 145 430 162T470 225T483 361Q483 456 470 501L248 176Z" />
<glyph unicode="&#xd9;" glyph-name="Ugrave" horiz-adv-x="660" d="M170 938H302L387 797H288L170 938ZM54 320V732H218V320Q218 217 242 181T340 144Q407 144 431 182T456 320V732H621V320Q621 253 611 201T587 114T548 57T502 21T448 3T394 -4T340 -5Q337 -5
330 -5Q292 -5 272 -4T218 3T165 20T122 55T85 113T63 199T54 320Z" />
<glyph unicode="&#xda;" glyph-name="Uacute" horiz-adv-x="660" d="M288 797L372 938H505L387 797H288ZM54 320V732H218V320Q218 217 242 181T340 144Q407 144 431 182T456 320V732H621V320Q621 253 611 201T587 114T548 57T502 21T448 3T394 -4T340 -5Q337 -5
330 -5Q292 -5 272 -4T218 3T165 20T122 55T85 113T63 199T54 320Z" />
<glyph unicode="&#xdb;" glyph-name="Ucircumflex" horiz-adv-x="660" d="M180 797L284 934H400L494 797H394L339 853L282 797H180ZM54 320V732H218V320Q218 217 242 181T340 144Q407 144 431 182T456 320V732H621V320Q621 253 611 201T587 114T548 57T502 21T448
3T394 -4T340 -5Q337 -5 330 -5Q292 -5 272 -4T218 3T165 20T122 55T85 113T63 199T54 320Z" />
<glyph unicode="&#xdc;" glyph-name="Udieresis" horiz-adv-x="660" d="M148 834T148 859T166 902T210 920T254 903T272 860T254 816T211 797T167 815ZM403 834T403 859T421 902T465 920T508 903T526 860T509 816T466 797T422 815ZM54 320V732H218V320Q218 217
242 181T340 144Q407 144 431 182T456 320V732H621V320Q621 253 611 201T587 114T548 57T502 21T448 3T394 -4T340 -5Q337 -5 330 -5Q292 -5 272 -4T218 3T165 20T122 55T85 113T63 199T54 320Z" />
<glyph unicode="&#xdd;" glyph-name="Yacute" horiz-adv-x="666" d="M290 797L375 938H508L390 797H290ZM30 732H208L334 393L472 732H650L414 215V0H250V215L30 732Z" />
<glyph unicode="&#xde;" glyph-name="Thorn" horiz-adv-x="542" d="M40 0V729H204V588H334Q510 587 510 375Q510 316 499 274T470 208T428 171T382 154T334 149Q311 148 294 148T256 153T204 168V0H40ZM204 290H274Q316 290 330 305T345 373Q345 399 340 414T324
436T302 444T274 446H204V290Z" />
<glyph unicode="&#xdf;" glyph-name="germandbls" horiz-adv-x="573" d="M40 0V566Q40 659 103 720T286 782Q355 782 406 766T486 721T528 657T541 583T524 507T484 438Q474 425 454 406T427 375T419 348Q419 335 433 323T469 299T510 272T545 231T560 172V147Q561
-8 388 -8Q319 -8 248 11V124Q313 118 339 118Q363 118 379 130T396 171V187Q396 204 383 217T350 241T310 263T276 297T262 350Q262 395 279 421T339 485Q377 520 377 562T355 620T294 636Q244 636 224 605T204 498V0H40Z" />
<glyph unicode="&#xe0;" glyph-name="agrave" horiz-adv-x="519" d="M100 742H233L317 601H218L100 742ZM26 139V185Q26 250 65 292T190 335Q322 334 322 335Q323 356 322 357Q322 395 307 405T255 416Q200 416 44 405V504Q94 525 147 533T280 541Q382 541 434
502T486 364V0H356L322 56Q314 39 274 16T183 -6Q105 -3 66 40T26 139ZM190 164Q190 149 194 140T205 126T219 121T237 120Q259 120 280 129T312 149L322 158V239L228 231Q190 228 190 181V164Z" />
<glyph unicode="&#xe1;" glyph-name="aacute" horiz-adv-x="519" d="M217 601L301 742H434L316 601H217ZM26 139V185Q26 250 65 292T190 335Q322 334 322 335Q323 356 322 357Q322 395 307 405T255 416Q200 416 44 405V504Q94 525 147 533T280 541Q382 541 434
502T486 364V0H356L322 56Q314 39 274 16T183 -6Q105 -3 66 40T26 139ZM190 164Q190 149 194 140T205 126T219 121T237 120Q259 120 280 129T312 149L322 158V239L228 231Q190 228 190 181V164Z" />
<glyph unicode="&#xe2;" glyph-name="acircumflex" horiz-adv-x="519" d="M110 601L214 738H330L424 601H323L268 657L212 601H110ZM26 139V185Q26 250 65 292T190 335Q322 334 322 335Q323 356 322 357Q322 395 307 405T255 416Q200 416 44 405V504Q94 525 147
533T280 541Q382 541 434 502T486 364V0H356L322 56Q314 39 274 16T183 -6Q105 -3 66 40T26 139ZM190 164Q190 149 194 140T205 126T219 121T237 120Q259 120 280 129T312 149L322 158V239L228 231Q190 228 190 181V164Z" />
<glyph unicode="&#xe3;" glyph-name="atilde" horiz-adv-x="519" d="M93 662Q151 733 214 733Q238 733 270 716T321 698Q366 696 413 737L438 671Q382 601 326 601Q302 602 266 619T212 636Q184 636 166 628T118 601L93 662ZM26 139V185Q26 250 65 292T190 335Q322
334 322 335Q323 356 322 357Q322 395 307 405T255 416Q200 416 44 405V504Q94 525 147 533T280 541Q382 541 434 502T486 364V0H356L322 56Q314 39 274 16T183 -6Q105 -3 66 40T26 139ZM190 164Q190 149 194 140T205 126T219 121T237 120Q259 120 280 129T312
149L322 158V239L228 231Q190 228 190 181V164Z" />
<glyph unicode="&#xe4;" glyph-name="adieresis" horiz-adv-x="519" d="M77 638T77 663T95 707T139 725T183 707T201 664T183 620T140 601T96 619ZM332 638T332 663T350 707T394 725T438 707T456 664T438 620T395 601T351 619ZM26 139V185Q26 250 65 292T190 335Q322
334 322 335Q323 356 322 357Q322 395 307 405T255 416Q200 416 44 405V504Q94 525 147 533T280 541Q382 541 434 502T486 364V0H356L322 56Q314 39 274 16T183 -6Q105 -3 66 40T26 139ZM190 164Q190 149 194 140T205 126T219 121T237 120Q259 120 280 129T312
149L322 158V239L228 231Q190 228 190 181V164Z" />
<glyph unicode="&#xe5;" glyph-name="aring" horiz-adv-x="519" d="M167 653T167 695T197 768T269 798T340 768T370 696T341 624T269 594T197 623ZM229 712T229 696T240 668T268 657T296 668T307 695T296 723T269 735T241 724ZM26 139V185Q26 250 65 292T190 335Q322
334 322 335Q323 356 322 357Q322 395 307 405T255 416Q200 416 44 405V504Q94 525 147 533T280 541Q382 541 434 502T486 364V0H356L322 56Q314 39 274 16T183 -6Q105 -3 66 40T26 139ZM190 164Q190 149 194 140T205 126T219 121T237 120Q259 120 280 129T312
149L322 158V239L228 231Q190 228 190 181V164Z" />
<glyph unicode="&#xe6;" glyph-name="ae" horiz-adv-x="832" d="M26 140V174Q26 238 65 281T190 324Q322 323 322 324Q323 358 322 358Q322 397 307 407T255 418Q216 418 44 406V505Q93 527 146 534T280 542Q383 540 424 506Q454 524 488 530T572 536Q626 536
660 533T725 518T771 486T797 432T806 350Q806 278 768 249T654 220H505Q505 161 532 142T621 122Q686 122 715 123T796 133V24Q763 11 705 4T615 -3T516 -4Q464 -4 431 13T374 65Q364 42 300 18T183 -4Q105 -2 66 41T26 140ZM190 162Q190 147 193 139T204 127T216
123T233 122Q235 122 237 122Q259 122 280 131T312 150L322 160V229L228 221Q190 218 190 171V162ZM505 324H604Q622 324 632 333T642 360Q642 399 633 408T583 418Q581 418 577 418Q552 418 542 417T521 406T508 378T505 324Z" />
<glyph unicode="&#xe7;" glyph-name="ccedilla" horiz-adv-x="492" d="M34 188T34 266T46 398T83 481T138 523T208 536Q365 536 459 502V404Q379 410 290 410Q270 410 260 409T237 404T219 391T207 366T200 325T198 264Q198 214 201 187T217 144T244 125T290 121Q331
121 375 123T443 128L466 130V30Q444 17 420 9T365 -2T315 -5T259 -6T208 -6Q169 -6 139 7T85 49T47 133ZM152 -113L193 -98Q213 -89 217 -79T222 -38H326Q326 -116 301 -148T210 -181H152V-113Z" />
<glyph unicode="&#xe8;" glyph-name="egrave" horiz-adv-x="525" d="M103 736H236L320 596H221L103 736ZM34 268Q34 353 45 405T86 486T157 525T266 535Q311 535 340 533T398 523T444 503T474 469T493 416T498 340Q498 266 460 234T346 202H198Q198 185 200 172T206
151T218 136T233 127T253 123T277 121T305 121Q311 121 314 121Q378 121 407 122T488 132V23Q455 9 397 3T307 -4T208 -5Q110 -5 72 58T34 268ZM198 313H297Q315 313 324 322T334 349Q334 391 324 403T276 416Q251 416 238 414T215 401T201 371T198 313Z" />
<glyph unicode="&#xe9;" glyph-name="eacute" horiz-adv-x="525" d="M219 596L303 736H436L318 596H219ZM34 268Q34 353 45 405T86 486T157 525T266 535Q311 535 340 533T398 523T444 503T474 469T493 416T498 340Q498 266 460 234T346 202H198Q198 185 200 172T206
151T218 136T233 127T253 123T277 121T305 121Q311 121 314 121Q378 121 407 122T488 132V23Q455 9 397 3T307 -4T208 -5Q110 -5 72 58T34 268ZM198 313H297Q315 313 324 322T334 349Q334 391 324 403T276 416Q251 416 238 414T215 401T201 371T198 313Z" />
<glyph unicode="&#xea;" glyph-name="ecircumflex" horiz-adv-x="525" d="M106 596L210 734H326L421 596H320L265 652L208 596H106ZM34 268Q34 353 45 405T86 486T157 525T266 535Q311 535 340 533T398 523T444 503T474 469T493 416T498 340Q498 266 460 234T346
202H198Q198 185 200 172T206 151T218 136T233 127T253 123T277 121T305 121Q311 121 314 121Q378 121 407 122T488 132V23Q455 9 397 3T307 -4T208 -5Q110 -5 72 58T34 268ZM198 313H297Q315 313 324 322T334 349Q334 391 324 403T276 416Q251 416 238 414T215
401T201 371T198 313Z" />
<glyph unicode="&#xeb;" glyph-name="edieresis" horiz-adv-x="525" d="M74 633T74 658T92 702T135 720T179 702T197 659T179 615T136 596T92 614ZM328 633T328 658T346 702T390 720T434 702T452 659T434 615T391 596T347 614ZM34 268Q34 353 45 405T86 486T157
525T266 535Q311 535 340 533T398 523T444 503T474 469T493 416T498 340Q498 266 460 234T346 202H198Q198 185 200 172T206 151T218 136T233 127T253 123T277 121T305 121Q311 121 314 121Q378 121 407 122T488 132V23Q455 9 397 3T307 -4T208 -5Q110 -5 72 58T34
268ZM198 313H297Q315 313 324 322T334 349Q334 391 324 403T276 416Q251 416 238 414T215 401T201 371T198 313Z" />
<glyph unicode="&#xec;" glyph-name="igrave" horiz-adv-x="244" d="M-45 736H88L172 596H73L-45 736ZM40 0V531H204V0H40Z" />
<glyph unicode="&#xed;" glyph-name="iacute" horiz-adv-x="244" d="M73 596L158 736H290L172 596H73ZM40 0V531H204V0H40Z" />
<glyph unicode="&#xee;" glyph-name="icircumflex" horiz-adv-x="244" d="M-35 596L70 734H186L280 596H179L124 652L67 596H-35ZM40 0V531H204V0H40Z" />
<glyph unicode="&#xef;" glyph-name="idieresis" horiz-adv-x="244" d="M-67 633T-67 658T-49 702T-5 720T39 702T57 659T39 615T-4 596T-48 614ZM188 633T188 658T206 702T250 720T294 702T312 659T294 615T251 596T207 614ZM40 0V531H204V0H40Z" />
<glyph unicode="&#xf0;" glyph-name="eth" horiz-adv-x="541" d="M26 264Q26 395 72 463T216 531H256Q316 531 334 524Q319 576 282 608L180 556L150 612L209 642Q167 653 85 650V783Q262 783 358 722L441 764L472 707L413 678Q472 613 493 511T514 264Q514 0
324 0H216Q115 0 71 64T26 264ZM190 264Q190 192 201 172T248 151H294Q331 151 340 172T350 264Q350 342 341 362T294 382H248Q215 382 203 359T190 264Z" />
<glyph unicode="&#xf1;" glyph-name="ntilde" horiz-adv-x="552" d="M107 660Q166 732 229 732Q253 732 285 715T335 697Q381 695 428 736L453 670Q397 600 340 600Q316 601 281 618T226 635Q199 635 181 627T133 600L107 660ZM40 0V531H175L204 476Q232 498 247
508T293 529T363 540Q410 540 442 526T490 483T513 423T520 348V0H356V350Q356 385 344 399T308 414Q273 414 250 404T204 372V0H40Z" />
<glyph unicode="&#xf2;" glyph-name="ograve" horiz-adv-x="557" d="M114 736H246L331 596H232L114 736ZM34 258Q34 367 58 427T133 511T279 536Q417 536 470 476T524 258Q524 109 472 52T279 -5Q142 -5 88 54T34 258ZM198 258Q198 196 205 168T228 131T279 122Q302
122 314 124T336 132T351 155T358 194T360 258Q360 301 358 325T352 368T338 395T315 406T279 410Q256 410 243 407T219 395T205 369T200 326T198 258Z" />
<glyph unicode="&#xf3;" glyph-name="oacute" horiz-adv-x="557" d="M229 596L314 736H446L328 596H229ZM34 258Q34 367 58 427T133 511T279 536Q417 536 470 476T524 258Q524 109 472 52T279 -5Q142 -5 88 54T34 258ZM198 258Q198 196 205 168T228 131T279 122Q302
122 314 124T336 132T351 155T358 194T360 258Q360 301 358 325T352 368T338 395T315 406T279 410Q256 410 243 407T219 395T205 369T200 326T198 258Z" />
<glyph unicode="&#xf4;" glyph-name="ocircumflex" horiz-adv-x="557" d="M123 596L227 734H343L437 596H336L282 652L225 596H123ZM34 258Q34 367 58 427T133 511T279 536Q417 536 470 476T524 258Q524 109 472 52T279 -5Q142 -5 88 54T34 258ZM198 258Q198 196
205 168T228 131T279 122Q302 122 314 124T336 132T351 155T358 194T360 258Q360 301 358 325T352 368T338 395T315 406T279 410Q256 410 243 407T219 395T205 369T200 326T198 258Z" />
<glyph unicode="&#xf5;" glyph-name="otilde" horiz-adv-x="557" d="M108 656Q167 728 230 728Q254 728 286 711T336 693Q382 691 429 732L454 666Q398 596 341 596Q317 597 282 614T227 631Q200 631 182 623T134 596L108 656ZM34 258Q34 367 58 427T133 511T279
536Q417 536 470 476T524 258Q524 109 472 52T279 -5Q142 -5 88 54T34 258ZM198 258Q198 196 205 168T228 131T279 122Q302 122 314 124T336 132T351 155T358 194T360 258Q360 301 358 325T352 368T338 395T315 406T279 410Q256 410 243 407T219 395T205 369T200
326T198 258Z" />
<glyph unicode="&#xf6;" glyph-name="odieresis" horiz-adv-x="557" d="M90 633T90 658T108 702T152 720T195 702T213 659T195 615T152 596T108 614ZM345 633T345 658T363 702T406 720T450 702T468 659T450 615T407 596T364 614ZM34 258Q34 367 58 427T133 511T279
536Q417 536 470 476T524 258Q524 109 472 52T279 -5Q142 -5 88 54T34 258ZM198 258Q198 196 205 168T228 131T279 122Q302 122 314 124T336 132T351 155T358 194T360 258Q360 301 358 325T352 368T338 395T315 406T279 410Q256 410 243 407T219 395T205 369T200
326T198 258Z" />
<glyph unicode="&#xf7;" glyph-name="divide" horiz-adv-x="491" d="M34 286V420H458V286H34ZM177 148V220Q177 244 201 244H283Q308 244 308 220V148Q308 125 283 125H201Q190 125 184 131T177 148ZM177 480V552Q177 576 201 576H283Q308 576 308 552V480Q308
457 283 457H201Q190 457 184 463T177 480Z" />
<glyph unicode="&#xf8;" glyph-name="oslash" horiz-adv-x="586" d="M48 258Q48 367 72 427T148 511T294 536Q396 536 448 506L468 531H550L495 464Q539 404 539 258Q539 109 487 52T294 -5Q190 -5 136 27L114 0H34L90 69Q48 128 48 258ZM212 258Q212 234 218
221L353 392Q339 410 294 410Q271 410 258 407T234 395T220 369T214 326T212 258ZM232 142Q240 130 254 126T294 122Q317 122 329 124T351 132T366 155T373 194T375 258Q375 296 369 314L232 142Z" />
<glyph unicode="&#xf9;" glyph-name="ugrave" horiz-adv-x="552" d="M108 736H240L325 596H226L108 736ZM34 184V531H198V180Q198 146 209 132T245 118Q280 118 303 127T348 160V531H512V0H378L348 54Q340 49 316 33T280 10T244 -2T190 -9Q143 -9 111 5T63 48T40
108T34 184Z" />
<glyph unicode="&#xfa;" glyph-name="uacute" horiz-adv-x="552" d="M224 596L308 736H440L322 596H224ZM34 184V531H198V180Q198 146 209 132T245 118Q280 118 303 127T348 160V531H512V0H378L348 54Q340 49 316 33T280 10T244 -2T190 -9Q143 -9 111 5T63 48T40
108T34 184Z" />
<glyph unicode="&#xfb;" glyph-name="ucircumflex" horiz-adv-x="552" d="M116 596L220 734H336L430 596H329L275 652L218 596H116ZM34 184V531H198V180Q198 146 209 132T245 118Q280 118 303 127T348 160V531H512V0H378L348 54Q340 49 316 33T280 10T244 -2T190
-9Q143 -9 111 5T63 48T40 108T34 184Z" />
<glyph unicode="&#xfc;" glyph-name="udieresis" horiz-adv-x="552" d="M84 633T84 658T102 702T146 720T189 702T207 659T189 615T146 596T102 614ZM339 633T339 658T357 702T400 720T444 702T462 659T444 615T401 596T358 614ZM34 184V531H198V180Q198 146 209
132T245 118Q280 118 303 127T348 160V531H512V0H378L348 54Q340 49 316 33T280 10T244 -2T190 -9Q143 -9 111 5T63 48T40 108T34 184Z" />
<glyph unicode="&#xfd;" glyph-name="yacute" horiz-adv-x="587" d="M243 596L327 736H460L342 596H243ZM14 531H185L263 175Q272 139 312 136L402 531H570L404 -168L332 -270H213L281 0Q145 0 109 144L14 531Z" />
<glyph unicode="&#xfe;" glyph-name="thorn" horiz-adv-x="557" d="M47 -270V782H211V474Q282 532 358 532Q448 532 489 465T530 262Q530 211 527 172T512 97T482 37T432 0T358 -14Q273 -14 211 22V-270H47ZM211 126Q243 111 308 109Q328 109 340 119T359 162T366
256Q366 336 352 366T308 396Q244 395 211 367V126Z" />
<glyph unicode="&#xff;" glyph-name="ydieresis" horiz-adv-x="587" d="M103 633T103 658T121 702T165 720T208 702T226 659T209 615T166 596T122 614ZM358 633T358 658T376 702T420 720T464 702T482 659T464 615T421 596T377 614ZM14 531H185L263 175Q272 139
312 136L402 531H570L404 -168L332 -270H213L281 0Q145 0 109 144L14 531Z" />
</font>
</defs>
</svg>
